<svg xmlns="http://www.w3.org/2000/svg" version="1.1" xmlns:xlink="http://www.w3.org/1999/xlink" xmlns:svgjs="http://svgjs.dev/svgjs" width="2000" height="404" viewBox="0 0 2000 404"><g transform="matrix(1,0,0,1,-1.2112696095522324,1.161689560729286)"><svg viewBox="0 0 396 80" data-background-color="#ffffff" preserveAspectRatio="xMidYMid meet" height="404" width="2000" xmlns="http://www.w3.org/2000/svg" xmlns:xlink="http://www.w3.org/1999/xlink"><g id="tight-bounds" transform="matrix(1,0,0,1,0.24008861730862918,-0.2296552331749524)"><svg viewBox="0 0 395.52 80.45969276995305" height="80.45969276995305" width="395.52"><g><svg viewBox="0 0 395.52 80.45969276995305" height="80.45969276995305" width="395.52"><g><svg viewBox="0 0 395.52 80.45969276995305" height="80.45969276995305" width="395.52"><g id="textblocktransform"><svg viewBox="0 0 395.52 80.45969276995305" height="80.45969276995305" width="395.52" id="textblock"><g><svg viewBox="0 0 395.52 80.45969276995305" height="80.45969276995305" width="395.52"><path d="M394.594 17.257C392.735 8.905 387.435 6.584 387.435 6.584 371.165-2.019 350.86-0.165 332.619 1.071 300.414 1.122 268.339 2.959 236.208 3.944 168.767 4.095 100.749 1.623 33.643 7.719 27.339 9.59-6.54 8.087 1.121 18.326 3.129 22.585 10.456 27.312 10.232 31.221 11.236 31.906 12.631 30.336 13.226 31.321 15.309 33.977 18.711 32.724 21.501 34.295 17.614 38.487 20.403 41.978 23.062 45.636 18.377 46.588 12.371 46.137 9.675 49.294 9.396 51.583 7.89 51.148 6.235 51.048 5.026 50.981 2.59 51.232 2.999 51.95 4.394 54.405-1.594 55.825 2.162 58.23-0.422 60.836 3.948 63.091 3.353 65.914 3.278 66.482 3.687 66.966 4.338 67.1 7.22 67.818 3.018 69.221 3.464 70.741 33.029 81.131 65.104 73.948 95.394 78.725 103.259 75.385 97.346 79.911 100.489 79.21 102.943 78.391 104.728 81.782 107.499 79.861 107.927 79.31 107.276 78.007 108.8 78.258 109.6 78.391 110.307 78.358 110.418 77.59 110.586 76.437 109.117 77.155 108.726 76.554 112.947 73.514 111.906 80.747 115.866 80.446 115.68 79.561 114.528 78.291 116.889 78.458 119.232 77.189 119.306 76.136 121.389 78.993 121.463 79.611 121.835 80.045 122.43 80.346 128.938 77.239 135.409 81.448 142.233 80.045 146.417 78.508 150.433 80.88 154.672 80.296 156.16 79.828 157.666 78.993 159.098 80.396 176.632 80.696 195.319 79.444 211.943 80.446 256.364 78.575 303.835 81.214 350.674 78.742 361.719 77.79 373.192 76.437 383.958 75.351 383.958 75.351 392.679 72.378 392.679 59.016S394.538 47.323 394.817 36.683C395.096 26.043 396.398 25.609 394.538 17.257Z" opacity="1" fill="#ffffff" data-fill-palette-color="tertiary"></path><g transform="matrix(1,0,0,1,55.76832,26.230666666666668)"><svg width="283.98335999999995" viewBox="0 -50 443.7300109863281 43.75" height="27.99835943661971" data-palette-color="#ffffff"><path d="M37.5-6.25L12.5-6.25 12.5-12.5 6.25-12.5 6.25-18.75 0-18.75 0-37.5 6.25-37.5 6.25-43.75 12.5-43.75 12.5-50 37.5-50 37.5-43.75 43.75-43.75 43.75-37.5 31.25-37.5 31.25-43.75 18.75-43.75 18.75-37.5 12.5-37.5 12.5-18.75 18.75-18.75 18.75-12.5 31.25-12.5 31.25-18.75 43.75-18.75 43.75-12.5 37.5-12.5 37.5-6.25ZM93.75-6.25L56.25-6.25 56.25-12.5 68.75-12.5 68.75-43.75 56.25-43.75 56.25-50 93.75-50 93.75-43.75 81.25-43.75 81.25-12.5 93.75-12.5 93.75-6.25ZM112.5-6.25L100-6.25 100-50 112.5-50 112.5-43.75 118.75-43.75 118.75-37.5 125-37.5 125-31.25 131.25-31.25 131.25-50 143.75-50 143.75-6.25 131.25-6.25 131.25-18.75 125-18.75 125-25 118.75-25 118.75-31.25 112.5-31.25 112.5-6.25ZM193.74-6.25L149.99-6.25 149.99-50 193.74-50 193.74-43.75 162.49-43.75 162.49-31.25 187.49-31.25 187.49-25 162.49-25 162.49-12.5 193.74-12.5 193.74-6.25ZM237.49-6.25L212.49-6.25 212.49-12.5 206.24-12.5 206.24-18.75 199.99-18.75 199.99-37.5 206.24-37.5 206.24-43.75 212.49-43.75 212.49-50 237.49-50 237.49-43.75 243.74-43.75 243.74-37.5 231.24-37.5 231.24-43.75 218.74-43.75 218.74-37.5 212.49-37.5 212.49-18.75 218.74-18.75 218.74-12.5 231.24-12.5 231.24-18.75 243.74-18.75 243.74-12.5 237.49-12.5 237.49-6.25ZM262.49-6.25L249.99-6.25 249.99-37.5 256.24-37.5 256.24-43.75 262.49-43.75 262.49-50 281.24-50 281.24-43.75 287.49-43.75 287.49-37.5 293.74-37.5 293.74-6.25 281.24-6.25 281.24-18.75 262.49-18.75 262.49-6.25ZM262.49-37.5L262.49-25 281.24-25 281.24-37.5 274.99-37.5 274.99-43.75 268.74-43.75 268.74-37.5 262.49-37.5ZM312.49-6.25L299.99-6.25 299.99-50 312.49-50 312.49-43.75 318.74-43.75 318.74-37.5 324.99-37.5 324.99-43.75 331.24-43.75 331.24-50 343.74-50 343.74-6.25 331.24-6.25 331.24-31.25 324.99-31.25 324.99-18.75 318.74-18.75 318.74-31.25 312.49-31.25 312.49-6.25ZM393.73-6.25L349.98-6.25 349.98-18.75 356.23-18.75 356.23-25 362.48-25 362.48-31.25 374.98-31.25 374.98-37.5 381.23-37.5 381.23-43.75 362.48-43.75 362.48-37.5 349.98-37.5 349.98-43.75 356.23-43.75 356.23-50 387.48-50 387.48-43.75 393.73-43.75 393.73-31.25 387.48-31.25 387.48-25 381.23-25 381.23-18.75 368.73-18.75 368.73-12.5 393.73-12.5 393.73-6.25ZM431.23-6.25L399.98-6.25 399.98-50 431.23-50 431.23-43.75 437.48-43.75 437.48-37.5 443.73-37.5 443.73-18.75 437.48-18.75 437.48-12.5 431.23-12.5 431.23-6.25ZM412.48-43.75L412.48-12.5 424.98-12.5 424.98-18.75 431.23-18.75 431.23-37.5 424.98-37.5 424.98-43.75 412.48-43.75Z" opacity="1" transform="matrix(1,0,0,1,0,0)" fill="#000000" class="wordmark-text-0" data-fill-palette-color="quaternary" id="text-0"></path></svg></g></svg></g></svg></g></svg></g><g></g></svg></g><defs></defs></svg><rect width="395.52" height="80.45969276995305" fill="none" stroke="none" visibility="hidden"></rect></g></svg></g></svg>